<?xml version="1.0" standalone="no"?>
<!DOCTYPE svg PUBLIC "-//W3C//DTD SVG 20010904//EN"
 "http://www.w3.org/TR/2001/REC-SVG-20010904/DTD/svg10.dtd">
<svg version="1.0" xmlns="http://www.w3.org/2000/svg"
 width="512.000000pt" height="512.000000pt" viewBox="0 0 512.000000 512.000000"
 preserveAspectRatio="xMidYMid meet">
<metadata>
Created by potrace 1.14, written by Peter Selinger 2001-2017
</metadata>
<g transform="translate(0.000000,512.000000) scale(0.100000,-0.100000)"
fill="#000000" stroke="none">
<path d="M2909 5115 c-3 -2 -20 -6 -39 -10 -44 -7 -149 -59 -196 -99 -58 -47
-122 -142 -146 -214 -20 -62 -22 -90 -24 -367 -2 -165 -3 -315 -3 -332 l-1
-33 -377 0 c-357 0 -380 -1 -440 -21 -150 -50 -252 -174 -278 -340 -15 -98
-87 -578 -101 -669 -8 -58 -16 -114 -18 -125 -2 -11 -12 -75 -22 -142 l-18
-122 -295 -3 c-279 -3 -299 -4 -351 -25 -135 -55 -232 -181 -254 -333 -4 -25
-14 -85 -22 -135 -14 -91 -112 -745 -119 -800 -2 -16 -20 -133 -39 -260 -19
-126 -38 -252 -42 -280 -3 -27 -8 -59 -10 -70 -23 -119 -39 -257 -39 -335 1
-85 4 -102 32 -162 41 -88 113 -160 201 -201 l67 -32 2160 -3 c2369 -2 2208
-6 2315 56 82 47 166 156 186 242 11 44 13 154 4 200 -4 25 -10 63 -14 85 -14
102 -33 231 -47 325 -6 36 -12 74 -14 85 -1 11 -8 56 -14 100 -7 44 -14 91
-16 105 -2 14 -13 90 -25 170 -12 80 -23 152 -25 160 -2 8 -7 42 -11 75 -3 33
-8 62 -9 65 -2 3 -7 32 -10 65 -4 32 -8 63 -10 69 -1 6 -5 34 -9 61 -4 28 -10
61 -12 75 -2 14 -6 45 -9 70 -3 25 -8 52 -10 60 -2 8 -7 35 -10 60 -5 39 -21
147 -40 275 -4 22 -11 69 -16 105 -6 36 -12 76 -14 90 -2 14 -8 54 -14 90 -5
36 -17 115 -25 175 -9 61 -23 151 -31 200 -8 50 -17 106 -19 125 -7 55 -36
249 -46 310 -5 30 -12 75 -15 100 -20 148 -40 217 -82 278 -47 70 -94 109
-173 146 l-65 31 -335 3 c-184 1 -362 3 -395 5 l-60 2 -1 325 c-1 302 -3 330
-23 392 -64 199 -232 325 -442 334 -47 2 -88 2 -90 -1z m212 -177 c97 -45 172
-143 187 -245 4 -26 7 -178 7 -338 l0 -290 -332 -3 -332 -2 2 327 2 328 26 55
c45 93 109 151 204 186 55 20 173 11 236 -18z"/>
</g>
</svg>
