<?xml version="1.0" standalone="no"?>
<!DOCTYPE svg PUBLIC "-//W3C//DTD SVG 20010904//EN"
 "http://www.w3.org/TR/2001/REC-SVG-20010904/DTD/svg10.dtd">
<svg version="1.0" xmlns="http://www.w3.org/2000/svg"
 width="512.000000pt" height="512.000000pt" viewBox="0 0 512.000000 512.000000"
 preserveAspectRatio="xMidYMid meet">
<metadata>
Created by potrace 1.14, written by Peter Selinger 2001-2017
</metadata>
<g transform="translate(0.000000,512.000000) scale(0.100000,-0.100000)"
fill="#000000" stroke="none">
<path d="M2566 5097 c-47 -27 -76 -63 -85 -108 l-7 -34 -674 -5 c-669 -5 -675
-5 -716 -27 -50 -27 -97 -75 -121 -122 -15 -30 -18 -68 -21 -243 l-3 -208 -60
0 c-33 0 -92 -5 -130 -12 l-70 -11 -62 60 c-93 91 -153 133 -191 133 -54 0
-98 -58 -81 -109 3 -11 40 -48 81 -82 41 -33 74 -62 74 -64 0 -1 -33 -24 -74
-49 -198 -124 -340 -317 -402 -552 -14 -51 -18 -105 -18 -209 0 -149 11 -207
61 -334 l25 -63 -31 -29 c-56 -50 -61 -77 -61 -302 0 -194 1 -206 23 -247 33
-62 89 -90 179 -90 37 0 68 -3 68 -7 0 -5 68 -485 151 -1068 164 -1149 158
-1119 234 -1204 21 -22 67 -55 103 -73 l67 -33 1735 0 1735 0 67 33 c36 18 82
51 103 73 78 86 71 52 235 1203 82 583 150 1063 150 1068 0 4 31 8 68 8 90 0
146 28 179 90 22 41 23 53 23 250 0 197 -1 209 -23 251 -38 71 -80 89 -208 89
l-107 0 49 128 c293 762 362 1304 207 1619 -61 125 -180 228 -316 275 -99 34
-250 32 -349 -4 -108 -39 -225 -122 -339 -240 -113 -119 -185 -216 -295 -400
-76 -125 -239 -445 -239 -467 0 -24 -22 -7 -99 76 -125 133 -161 223 -161 400
0 80 2 86 26 106 52 41 64 86 64 257 0 168 -10 210 -61 257 -44 40 -70 43
-372 43 -284 0 -293 -1 -331 -23z m584 -272 l0 -125 -250 0 -250 0 0 125 0
125 250 0 250 0 0 -125z m-850 -104 c0 -39 6 -56 26 -80 14 -17 35 -31 46 -31
20 0 20 -4 16 -152 -6 -189 -26 -268 -68 -268 -15 0 -53 11 -86 24 -163 66
-336 71 -492 15 -74 -27 -104 -33 -204 -36 l-116 -4 -79 45 c-43 24 -113 57
-155 72 l-78 27 0 184 c0 187 8 232 42 246 7 3 268 6 581 6 l567 1 0 -49z
m770 -299 c0 -118 25 -225 72 -315 22 -40 76 -106 156 -190 127 -133 172 -201
188 -289 l6 -38 -591 0 c-325 0 -591 4 -591 8 0 24 35 123 57 161 14 25 79 99
144 167 99 103 124 135 157 205 50 104 62 162 62 289 l0 100 170 0 170 0 0
-98z m-969 -348 c30 -9 75 -27 101 -40 32 -16 64 -24 99 -24 l51 0 -60 -65
c-105 -115 -162 -268 -162 -436 0 -67 -1 -69 -27 -75 -16 -3 -34 -8 -42 -10
-29 -9 -178 -5 -223 6 l-45 12 -6 86 c-10 145 -67 307 -150 430 l-36 52 35 0
c19 0 54 10 77 22 114 58 274 76 388 42z m1399 -834 l0 -170 -597 2 -598 3 -3
168 -2 167 600 0 600 0 0 -170z m-1597 3 l57 -6 0 -78 0 -79 -121 0 c-92 0
-120 3 -117 13 2 6 15 47 28 90 l25 78 35 -6 c19 -3 61 -9 93 -12z m-213 -345
c0 -2 -24 -77 -54 -168 l-53 -165 -706 -3 -707 -2 0 170 0 170 760 0 c418 0
760 -1 760 -2z m360 -16 c46 -23 80 -75 80 -123 0 -41 -470 -1533 -489 -1552
-13 -13 -54 -4 -184 43 -70 26 -87 36 -87 52 0 30 466 1495 487 1530 36 62
124 85 193 50z m800 16 c0 -2 -7 -21 -15 -43 -21 -58 -19 -161 5 -230 11 -32
20 -60 20 -62 0 -1 -135 -3 -300 -3 -165 0 -300 2 -300 3 0 2 9 30 20 62 24
69 26 172 5 230 -8 22 -15 41 -15 43 0 1 131 2 290 2 160 0 290 -1 290 -2z
m360 -17 c19 -10 43 -32 53 -49 21 -35 487 -1500 487 -1530 0 -22 1 -22 -134
-68 -114 -39 -132 -41 -145 -16 -26 49 -481 1506 -481 1540 0 105 124 175 220
123z m1740 -151 l0 -170 -707 2 -706 3 -53 165 c-30 91 -54 166 -54 168 0 1
342 2 760 2 l760 0 0 -170z m-3430 -350 c0 -6 -74 -244 -165 -530 -91 -286
-165 -530 -165 -542 0 -73 62 -164 129 -191 l39 -16 4 -158 c4 -175 13 -206
80 -272 53 -54 107 -73 224 -79 118 -6 109 3 119 -116 6 -69 11 -83 35 -108
30 -30 67 -36 102 -17 22 12 50 70 44 91 -3 7 -7 43 -10 80 l-7 68 261 0 260
0 0 -96 c0 -92 1 -97 29 -125 37 -36 79 -38 118 -5 27 23 28 29 31 125 l4 101
259 0 258 0 -6 -99 c-6 -97 -5 -100 20 -125 18 -18 37 -26 60 -26 62 0 95 62
97 180 0 25 4 50 8 56 4 7 50 13 107 16 148 7 223 48 277 152 19 36 23 61 26
199 l4 158 39 16 c67 27 129 118 129 191 0 12 -74 256 -165 542 -91 286 -165
524 -165 530 0 7 181 10 535 10 l535 0 0 -23 c0 -42 -290 -2051 -301 -2084
-12 -37 -67 -89 -107 -100 -15 -5 -787 -8 -1717 -8 l-1690 0 -38 24 c-21 12
-46 40 -57 60 -14 29 -55 291 -165 1062 -80 563 -148 1034 -150 1047 l-5 22
540 0 c357 0 540 -3 540 -10z m1457 -190 c34 -107 63 -201 63 -207 0 -10 -46
-13 -195 -13 l-195 0 0 96 c0 92 -1 97 -29 125 -40 39 -82 39 -122 0 -28 -28
-29 -33 -29 -125 l0 -96 -195 0 c-135 0 -195 3 -195 11 0 11 119 388 127 402
2 4 162 6 356 5 l351 -3 63 -195z m228 -712 c54 -172 109 -332 122 -355 40
-72 141 -116 217 -95 l36 10 0 -109 c0 -103 -1 -111 -25 -134 l-24 -25 -971 0
-971 0 -24 25 c-24 23 -25 31 -25 135 l0 110 28 -7 c84 -24 184 16 225 90 13
23 68 183 122 355 l99 312 546 0 546 0 99 -312z"/>
<path d="M795 2195 c-19 -18 -25 -35 -25 -67 0 -24 54 -425 118 -892 l118
-849 28 -23 c46 -40 115 -24 136 32 11 28 -223 1742 -242 1778 -28 52 -92 63
-133 21z"/>
<path d="M4205 2195 c-14 -13 -25 -29 -25 -36 0 -6 -54 -400 -120 -875 -86
-622 -117 -870 -110 -888 21 -56 90 -72 136 -32 l28 23 118 849 c64 467 118
870 118 895 0 35 -5 51 -23 67 -33 31 -90 30 -122 -3z"/>
</g>
</svg>
